<svg xmlns="http://www.w3.org/2000/svg" width="1080" viewBox="0 0 810 810" height="1080" version="1.0"><defs><clipPath id="a"><path d="M359 9.883h90V122h-90Zm0 0"/></clipPath><clipPath id="b"><path d="M0 682h807.75v128H0Zm0 0"/></clipPath><clipPath id="c"><path d="M359 9.883h45V55h-45Zm0 0"/></clipPath></defs><g clip-path="url(#a)"><path fill="#292f33" d="M359.027 9.883h89.696v112.113h-89.696Zm0 0"/></g><path fill="#d1d3d4" d="M359.027 54.727h89.696v89.691h-89.696Zm0 0"/><path fill="#a7a9ac" d="M403.875 54.727h44.848v89.691h-44.848Zm0 0"/><path fill="#66757f" d="M403.875 435.918H112.367S142.75 615.305 221.68 749.844c78.91 134.539 182.195 0 182.195 0s103.285 134.539 182.195 0C665 615.304 695.383 435.918 695.383 435.918Zm0 0"/><path fill="#99aab5" d="M403.875 435.918H112.367S142.75 615.305 221.68 749.844c78.91 134.539 182.195 0 182.195 0Zm0 0"/><g clip-path="url(#b)"><path fill="#55acee" d="M.246 682.574h807.258v134.54H.246Zm0 0"/></g><path fill="#e6e7e8" d="M672.96 211.688h-54.937l-5.425-89.692H195.152l-5.402 89.692h-54.96v134.539h46.82l-5.426 89.691h455.382l-5.425-89.691h46.82Zm0 0"/><path fill="#d1d3d4" d="M224.484 346.227h358.782v89.691H224.484Zm0 0"/><path fill="#6d6e71" d="M179.637 256.535h448.476v44.848H179.637Zm0 0"/><path fill="#bcbec0" d="M224.484 166.844h358.782v44.844H224.484Zm0 0"/><path fill="#be1931" d="M132.84 525.613h542.07c4.508-16.75 8.254-32 11.215-44.847h-564.5a1280.152 1280.152 0 0 0 11.215 44.847Zm0 0"/><path fill="#a0041e" d="M403.875 525.613H674.91c4.508-16.75 8.254-32 11.215-44.847h-282.25Zm0 0"/><path fill="#bcbec0" d="M269.332 391.074h269.086v44.844H269.332Zm0 0"/><g clip-path="url(#c)"><path fill="#58595b" d="M359.027 9.883h44.848v44.844h-44.848Zm0 0"/></g></svg>