<svg xmlns="http://www.w3.org/2000/svg" xmlns:xlink="http://www.w3.org/1999/xlink" width="200" zoomAndPan="magnify" viewBox="0 0 150 149.999998" height="200" preserveAspectRatio="xMidYMid meet" version="1.0"><path fill="#292f33" d="M 66.660156 0 L 83.398438 0 L 83.398438 20.960938 L 66.660156 20.960938 Z M 66.660156 0 " fill-opacity="1" fill-rule="nonzero"/><path fill="#d1d3d4" d="M 66.660156 8.382812 L 83.398438 8.382812 L 83.398438 25.152344 L 66.660156 25.152344 Z M 66.660156 8.382812 " fill-opacity="1" fill-rule="nonzero"/><path fill="#a7a9ac" d="M 75.027344 8.382812 L 83.398438 8.382812 L 83.398438 25.152344 L 75.027344 25.152344 Z M 75.027344 8.382812 " fill-opacity="1" fill-rule="nonzero"/><path fill="#66757f" d="M 75.027344 79.652344 L 20.625 79.652344 C 20.625 79.652344 26.296875 113.191406 41.027344 138.347656 C 55.753906 163.5 75.027344 138.347656 75.027344 138.347656 C 75.027344 138.347656 94.304688 163.5 109.03125 138.347656 C 123.761719 113.191406 129.433594 79.652344 129.433594 79.652344 Z M 75.027344 79.652344 " fill-opacity="1" fill-rule="nonzero"/><path fill="#99aab5" d="M 75.027344 79.652344 L 20.625 79.652344 C 20.625 79.652344 26.296875 113.191406 41.027344 138.347656 C 55.753906 163.5 75.027344 138.347656 75.027344 138.347656 Z M 75.027344 79.652344 " fill-opacity="1" fill-rule="nonzero"/><path fill="#55acee" d="M -0.300781 125.769531 L 150.355469 125.769531 L 150.355469 150.921875 L -0.300781 150.921875 Z M -0.300781 125.769531 " fill-opacity="1" fill-rule="nonzero"/><path fill="#e6e7e8" d="M 125.246094 37.730469 L 114.996094 37.730469 L 113.980469 20.960938 L 36.074219 20.960938 L 35.066406 37.730469 L 24.808594 37.730469 L 24.808594 62.882812 L 33.546875 62.882812 L 32.535156 79.652344 L 117.523438 79.652344 L 116.507812 62.882812 L 125.246094 62.882812 Z M 125.246094 37.730469 " fill-opacity="1" fill-rule="nonzero"/><path fill="#d1d3d4" d="M 41.550781 62.882812 L 108.507812 62.882812 L 108.507812 79.652344 L 41.550781 79.652344 Z M 41.550781 62.882812 " fill-opacity="1" fill-rule="nonzero"/><path fill="#6d6e71" d="M 33.179688 46.117188 L 116.878906 46.117188 L 116.878906 54.5 L 33.179688 54.5 Z M 33.179688 46.117188 " fill-opacity="1" fill-rule="nonzero"/><path fill="#bcbec0" d="M 41.550781 29.347656 L 108.507812 29.347656 L 108.507812 37.730469 L 41.550781 37.730469 Z M 41.550781 29.347656 " fill-opacity="1" fill-rule="nonzero"/><path fill="#be1931" d="M 24.445312 96.421875 L 125.613281 96.421875 C 126.453125 93.292969 127.152344 90.441406 127.703125 88.039062 L 22.351562 88.039062 C 22.90625 90.441406 23.605469 93.292969 24.445312 96.421875 Z M 24.445312 96.421875 " fill-opacity="1" fill-rule="nonzero"/><path fill="#a0041e" d="M 75.027344 96.421875 L 125.613281 96.421875 C 126.453125 93.292969 127.152344 90.441406 127.703125 88.039062 L 75.027344 88.039062 Z M 75.027344 96.421875 " fill-opacity="1" fill-rule="nonzero"/><path fill="#bcbec0" d="M 49.917969 71.269531 L 100.136719 71.269531 L 100.136719 79.652344 L 49.917969 79.652344 Z M 49.917969 71.269531 " fill-opacity="1" fill-rule="nonzero"/><path fill="#58595b" d="M 66.660156 0 L 75.027344 0 L 75.027344 8.382812 L 66.660156 8.382812 Z M 66.660156 0 " fill-opacity="1" fill-rule="nonzero"/></svg>