<svg width="107" height="20" viewBox="0 0 107 20" fill="none" xmlns="http://www.w3.org/2000/svg">
<path d="M0.289595 15.5V0.954545H3.31516V6.4233H3.40749C3.54007 6.12973 3.73183 5.83144 3.98278 5.52841C4.23846 5.22064 4.5699 4.96496 4.9771 4.76136C5.38903 4.55303 5.90039 4.44886 6.51119 4.44886C7.30664 4.44886 8.04054 4.6572 8.71289 5.07386C9.38524 5.4858 9.92264 6.10843 10.3251 6.94176C10.7276 7.77036 10.9288 8.80966 10.9288 10.0597C10.9288 11.2765 10.7323 12.304 10.3393 13.142C9.95105 13.9754 9.42075 14.6075 8.7484 15.0384C8.08079 15.4645 7.33268 15.6776 6.50408 15.6776C5.91696 15.6776 5.41744 15.5805 5.0055 15.3864C4.59831 15.1922 4.2645 14.9484 4.00408 14.6548C3.74367 14.3565 3.5448 14.0559 3.40749 13.7528H3.27255V15.5H0.289595ZM3.25124 10.0455C3.25124 10.6941 3.34121 11.2599 3.52113 11.7429C3.70105 12.2259 3.96147 12.6023 4.30238 12.8722C4.64329 13.1373 5.05759 13.2699 5.54528 13.2699C6.0377 13.2699 6.45437 13.1349 6.79528 12.8651C7.13619 12.5904 7.39424 12.2116 7.56942 11.7287C7.74935 11.241 7.83931 10.6799 7.83931 10.0455C7.83931 9.41572 7.75172 8.86174 7.57653 8.38352C7.40134 7.9053 7.14329 7.53125 6.80238 7.26136C6.46147 6.99148 6.04244 6.85653 5.54528 6.85653C5.05285 6.85653 4.63619 6.98674 4.29528 7.24716C3.9591 7.50758 3.70105 7.87689 3.52113 8.35511C3.34121 8.83333 3.25124 9.39678 3.25124 10.0455ZM19.9434 10.8551V4.59091H22.9689V15.5H20.0641V13.5185H19.9505C19.7042 14.1577 19.2947 14.6714 18.7218 15.0597C18.1536 15.4479 17.4599 15.642 16.6408 15.642C15.9116 15.642 15.2701 15.4763 14.7161 15.1449C14.1621 14.8134 13.7289 14.3423 13.4164 13.7315C13.1086 13.1207 12.9524 12.3892 12.9476 11.5369V4.59091H15.9732V10.9972C15.9779 11.6411 16.1507 12.1501 16.4917 12.5241C16.8326 12.8982 17.2895 13.0852 17.8624 13.0852C18.227 13.0852 18.5679 13.0024 18.8851 12.8366C19.2024 12.6662 19.458 12.4152 19.6522 12.0838C19.851 11.7524 19.9481 11.3428 19.9434 10.8551ZM25.389 15.5V4.59091H28.4146V15.5H25.389ZM26.9089 3.18466C26.4591 3.18466 26.0732 3.03551 25.7512 2.73722C25.434 2.43419 25.2754 2.07197 25.2754 1.65057C25.2754 1.2339 25.434 0.87642 25.7512 0.578125C26.0732 0.275094 26.4591 0.123579 26.9089 0.123579C27.3587 0.123579 27.7422 0.275094 28.0595 0.578125C28.3815 0.87642 28.5424 1.2339 28.5424 1.65057C28.5424 2.07197 28.3815 2.43419 28.0595 2.73722C27.7422 3.03551 27.3587 3.18466 26.9089 3.18466ZM33.8638 0.954545V15.5H30.8382V0.954545H33.8638ZM40.3074 15.6776C39.4788 15.6776 38.7283 15.4645 38.0559 15.0384C37.3883 14.6075 36.858 13.9754 36.465 13.142C36.0768 12.304 35.8826 11.2765 35.8826 10.0597C35.8826 8.80966 36.0839 7.77036 36.4863 6.94176C36.8888 6.10843 37.4238 5.4858 38.0914 5.07386C38.7638 4.6572 39.5001 4.44886 40.3002 4.44886C40.911 4.44886 41.42 4.55303 41.8272 4.76136C42.2392 4.96496 42.5706 5.22064 42.8216 5.52841C43.0772 5.83144 43.2714 6.12973 43.4039 6.4233H43.4963V0.954545H46.5147V15.5H43.5318V13.7528H43.4039C43.2619 14.0559 43.0607 14.3565 42.8002 14.6548C42.5446 14.9484 42.2108 15.1922 41.7988 15.3864C41.3916 15.5805 40.8945 15.6776 40.3074 15.6776ZM41.2662 13.2699C41.7538 13.2699 42.1658 13.1373 42.502 12.8722C42.8429 12.6023 43.1033 12.2259 43.2832 11.7429C43.4679 11.2599 43.5602 10.6941 43.5602 10.0455C43.5602 9.39678 43.4702 8.83333 43.2903 8.35511C43.1104 7.87689 42.85 7.50758 42.5091 7.24716C42.1681 6.98674 41.7538 6.85653 41.2662 6.85653C40.769 6.85653 40.35 6.99148 40.0091 7.26136C39.6681 7.53125 39.4101 7.9053 39.2349 8.38352C39.0597 8.86174 38.9721 9.41572 38.9721 10.0455C38.9721 10.6799 39.0597 11.241 39.2349 11.7287C39.4148 12.2116 39.6729 12.5904 40.0091 12.8651C40.35 13.1349 40.769 13.2699 41.2662 13.2699ZM58.079 7.7017L55.3091 7.87216C55.2618 7.63542 55.16 7.42235 55.0037 7.23295C54.8475 7.03883 54.6415 6.88494 54.3858 6.77131C54.1349 6.65294 53.8342 6.59375 53.4838 6.59375C53.0151 6.59375 52.6197 6.69318 52.2978 6.89205C51.9758 7.08617 51.8148 7.34659 51.8148 7.6733C51.8148 7.93371 51.919 8.15388 52.1273 8.33381C52.3356 8.51373 52.6931 8.65814 53.1998 8.76705L55.1742 9.16477C56.2348 9.38258 57.0255 9.73295 57.5463 10.2159C58.0672 10.6989 58.3276 11.3333 58.3276 12.1193C58.3276 12.8343 58.1169 13.4616 57.6955 14.0014C57.2788 14.5412 56.7059 14.9626 55.9767 15.2656C55.2523 15.5639 54.4166 15.7131 53.4696 15.7131C52.0255 15.7131 50.8749 15.4124 50.0179 14.8111C49.1657 14.205 48.6661 13.3812 48.5194 12.3395L51.4952 12.1832C51.5852 12.6236 51.803 12.9598 52.1486 13.1918C52.4943 13.419 52.937 13.5327 53.4767 13.5327C54.007 13.5327 54.4332 13.4309 54.7551 13.2273C55.0819 13.0189 55.2476 12.7514 55.2523 12.4247C55.2476 12.1501 55.1316 11.9252 54.9043 11.75C54.677 11.5701 54.3266 11.4328 53.8532 11.3381L51.964 10.9616C50.8986 10.7486 50.1055 10.3793 49.5847 9.85369C49.0686 9.32812 48.8105 8.65814 48.8105 7.84375C48.8105 7.14299 48.9999 6.5393 49.3787 6.03267C49.7623 5.52604 50.2997 5.13542 50.9909 4.8608C51.687 4.58617 52.5014 4.44886 53.4341 4.44886C54.812 4.44886 55.8962 4.74006 56.687 5.32244C57.4824 5.90483 57.9464 6.69792 58.079 7.7017ZM60.2328 19.5909V4.59091H63.2157V6.4233H63.3507C63.4833 6.12973 63.675 5.83144 63.926 5.52841C64.1816 5.22064 64.5131 4.96496 64.9203 4.76136C65.3322 4.55303 65.8436 4.44886 66.4544 4.44886C67.2498 4.44886 67.9837 4.6572 68.6561 5.07386C69.3284 5.4858 69.8658 6.10843 70.2683 6.94176C70.6708 7.77036 70.872 8.80966 70.872 10.0597C70.872 11.2765 70.6755 12.304 70.2825 13.142C69.8942 13.9754 69.3639 14.6075 68.6916 15.0384C68.024 15.4645 67.2759 15.6776 66.4473 15.6776C65.8601 15.6776 65.3606 15.5805 64.9487 15.3864C64.5415 15.1922 64.2077 14.9484 63.9473 14.6548C63.6868 14.3565 63.488 14.0559 63.3507 13.7528H63.2583V19.5909H60.2328ZM63.1944 10.0455C63.1944 10.6941 63.2844 11.2599 63.4643 11.7429C63.6442 12.2259 63.9047 12.6023 64.2456 12.8722C64.5865 13.1373 65.0008 13.2699 65.4885 13.2699C65.9809 13.2699 66.3975 13.1349 66.7385 12.8651C67.0794 12.5904 67.3374 12.2116 67.5126 11.7287C67.6925 11.241 67.7825 10.6799 67.7825 10.0455C67.7825 9.41572 67.6949 8.86174 67.5197 8.38352C67.3445 7.9053 67.0865 7.53125 66.7456 7.26136C66.4047 6.99148 65.9856 6.85653 65.4885 6.85653C64.996 6.85653 64.5794 6.98674 64.2385 7.24716C63.9023 7.50758 63.6442 7.87689 63.4643 8.35511C63.2844 8.83333 63.1944 9.39678 63.1944 10.0455ZM75.9998 15.706C75.3038 15.706 74.6835 15.5852 74.139 15.3438C73.5945 15.0975 73.1636 14.7353 72.8464 14.2571C72.5339 13.7741 72.3777 13.1728 72.3777 12.4531C72.3777 11.8471 72.4889 11.3381 72.7115 10.9261C72.934 10.5142 73.237 10.1828 73.6206 9.93182C74.0041 9.68087 74.4397 9.49148 74.9274 9.36364C75.4198 9.2358 75.9359 9.14583 76.4757 9.09375C77.1101 9.02746 77.6215 8.96591 78.0098 8.90909C78.398 8.84754 78.6797 8.75758 78.8549 8.6392C79.0301 8.52083 79.1177 8.34564 79.1177 8.11364V8.07102C79.1177 7.62121 78.9757 7.2732 78.6916 7.02699C78.4122 6.78078 78.0145 6.65767 77.4984 6.65767C76.9539 6.65767 76.5207 6.77841 76.1987 7.01989C75.8767 7.25663 75.6636 7.55492 75.5595 7.91477L72.7612 7.6875C72.9032 7.02462 73.1826 6.4517 73.5993 5.96875C74.0159 5.48106 74.5533 5.10701 75.2115 4.84659C75.8743 4.58144 76.6414 4.44886 77.5126 4.44886C78.1187 4.44886 78.6987 4.51989 79.2527 4.66193C79.8114 4.80398 80.3062 5.02415 80.737 5.32244C81.1726 5.62074 81.5159 6.00426 81.7669 6.47301C82.0178 6.93703 82.1433 7.49337 82.1433 8.14205V15.5H79.274V13.9872H79.1887C79.0136 14.3281 78.7792 14.6288 78.4856 14.8892C78.1921 15.1449 77.8393 15.3461 77.4274 15.4929C77.0154 15.6349 76.5396 15.706 75.9998 15.706ZM76.8663 13.6179C77.3114 13.6179 77.7044 13.5303 78.0453 13.3551C78.3862 13.1752 78.6537 12.9337 78.8478 12.6307C79.042 12.3277 79.139 11.9844 79.139 11.6009V10.4432C79.0443 10.5047 78.9141 10.5616 78.7484 10.6136C78.5874 10.661 78.4051 10.706 78.2015 10.7486C77.9979 10.7865 77.7943 10.822 77.5907 10.8551C77.3871 10.8835 77.2025 10.9096 77.0368 10.9332C76.6816 10.9853 76.3715 11.0682 76.1064 11.1818C75.8412 11.2955 75.6352 11.4493 75.4885 11.6435C75.3417 11.8329 75.2683 12.0696 75.2683 12.3537C75.2683 12.7656 75.4174 13.0805 75.7157 13.2983C76.0188 13.5114 76.4023 13.6179 76.8663 13.6179ZM89.4196 15.7131C88.3021 15.7131 87.341 15.4763 86.536 15.0028C85.7359 14.5246 85.1203 13.8617 84.6895 13.0142C84.2633 12.1667 84.0502 11.1913 84.0502 10.0881C84.0502 8.97064 84.2657 7.99053 84.6966 7.14773C85.1322 6.30019 85.7501 5.63968 86.5502 5.16619C87.3504 4.68797 88.3021 4.44886 89.4054 4.44886C90.3571 4.44886 91.1904 4.62169 91.9054 4.96733C92.6203 5.31297 93.1861 5.7983 93.6028 6.4233C94.0195 7.0483 94.2491 7.7822 94.2917 8.625H91.4366C91.3561 8.08049 91.1431 7.64252 90.7974 7.31108C90.4565 6.97491 90.0091 6.80682 89.4551 6.80682C88.9863 6.80682 88.5768 6.93466 88.2264 7.19034C87.8807 7.44129 87.6109 7.80824 87.4167 8.29119C87.2226 8.77415 87.1255 9.3589 87.1255 10.0455C87.1255 10.7415 87.2202 11.3333 87.4096 11.821C87.6038 12.3087 87.876 12.6804 88.2264 12.9361C88.5768 13.1918 88.9863 13.3196 89.4551 13.3196C89.8007 13.3196 90.1109 13.2486 90.3855 13.1065C90.6648 12.9645 90.8945 12.7585 91.0744 12.4886C91.2591 12.214 91.3798 11.8849 91.4366 11.5014H94.2917C94.2444 12.3348 94.0171 13.0687 93.6099 13.7031C93.2074 14.3329 92.6511 14.8253 91.9409 15.1804C91.2306 15.5355 90.3902 15.7131 89.4196 15.7131ZM101.2 15.7131C100.078 15.7131 99.1124 15.4858 98.3027 15.0312C97.4978 14.572 96.8775 13.9233 96.4419 13.0852C96.0063 12.2424 95.7885 11.2457 95.7885 10.0952C95.7885 8.97301 96.0063 7.98816 96.4419 7.14062C96.8775 6.29309 97.4907 5.63258 98.2814 5.15909C99.0769 4.68561 100.01 4.44886 101.08 4.44886C101.799 4.44886 102.469 4.56487 103.09 4.79688C103.715 5.02415 104.259 5.36742 104.723 5.8267C105.192 6.28598 105.557 6.86364 105.817 7.55966C106.077 8.25095 106.208 9.06061 106.208 9.98864V10.8196H96.9959V8.9446H103.36C103.36 8.509 103.265 8.12311 103.075 7.78693C102.886 7.45076 102.623 7.18797 102.287 6.99858C101.956 6.80445 101.57 6.70739 101.129 6.70739C100.67 6.70739 100.263 6.81392 99.9078 7.02699C99.5575 7.23532 99.2828 7.51705 99.084 7.87216C98.8851 8.22254 98.7833 8.61316 98.7786 9.04403V10.8267C98.7786 11.3665 98.878 11.8329 99.0769 12.2259C99.2805 12.6188 99.5669 12.9219 99.9363 13.1349C100.306 13.348 100.744 13.4545 101.25 13.4545C101.586 13.4545 101.894 13.4072 102.173 13.3125C102.453 13.2178 102.692 13.0758 102.891 12.8864C103.09 12.697 103.241 12.465 103.345 12.1903L106.144 12.375C106.002 13.0473 105.71 13.6345 105.27 14.1364C104.834 14.6335 104.271 15.0218 103.58 15.3011C102.893 15.5758 102.1 15.7131 101.2 15.7131Z" fill="white"/>
</svg>
